PathFileType	4	(X/Y/Z)	C:\Users\Biomechanik\SynologyDrive\AlexP\Athlete_03\Athlete_3_25_03_31\Deadlift_bw_02\marker_experimental.trc
DataRate	CameraRate	NumFrames	NumMarkers	Units	OrigDataRate	OrigDataStartFrame	OrigNumFrames
200.000000	200.000000	4	55	mm	200.000000	1353	1804
Frame#	Time	BL			BR			GLAB			RFHD			LFHD			C7			T6			SPINMOL			SPINM2			SPINM3			T12			BELTOL			BELT2			BELT3			SACROL			SACR2			SACR3			LTHOL			LTH2			LTH3			LSHAOL			LSHA2			LSHA3			LHEE			LTOE			LM5			RTHOL			RTH2			RTH3			RSHAOL			RSHA2			RSHA3			RHEE			RTOE			RM5			STRN			XIPH			LACR			LUAOL			LUA2			LUA3			LLAOL			LLA2			LLA3			LWRR			LWRU			RACR			RUAOL			RUA2			RUA3			RLAOL			RLA2			RLA3			RWRR			RWRU			
		X1	Y1	Z1	X2	Y2	Z2	X3	Y3	Z3	X4	Y4	Z4	X5	Y5	Z5	X6	Y6	Z6	X7	Y7	Z7	X8	Y8	Z8	X9	Y9	Z9	X10	Y10	Z10	X11	Y11	Z11	X12	Y12	Z12	X13	Y13	Z13	X14	Y14	Z14	X15	Y15	Z15	X16	Y16	Z16	X17	Y17	Z17	X18	Y18	Z18	X19	Y19	Z19	X20	Y20	Z20	X21	Y21	Z21	X22	Y22	Z22	X23	Y23	Z23	X24	Y24	Z24	X25	Y25	Z25	X26	Y26	Z26	X27	Y27	Z27	X28	Y28	Z28	X29	Y29	Z29	X30	Y30	Z30	X31	Y31	Z31	X32	Y32	Z32	X33	Y33	Z33	X34	Y34	Z34	X35	Y35	Z35	X36	Y36	Z36	X37	Y37	Z37	X38	Y38	Z38	X39	Y39	Z39	X40	Y40	Z40	X41	Y41	Z41	X42	Y42	Z42	X43	Y43	Z43	X44	Y44	Z44	X45	Y45	Z45	X46	Y46	Z46	X47	Y47	Z47	X48	Y48	Z48	X49	Y49	Z49	X50	Y50	Z50	X51	Y51	Z51	X52	Y52	Z52	X53	Y53	Z53	X54	Y54	Z54	X55	Y55	Z55	

1354	6.765000000000001	1214.243530273438	39.24501800537124	-2269.226318359375	1226.886840820312	29.89012908935548	-248.6991729736328	605.03173828125	1028.906372070312	-1202.343383789062	585.0400390625	1080.410278320312	-1138.887329101562	585.59033203125	1073.7275390625	-1275.316650390625	330.8952331542969	1063.068603515625	-1206.335571289062	172.3628234863281	994.1524658203126	-1208.220092773438	142.5691528320312	976.8291015625001	-1229.524536132812	134.4656372070312	971.9141235351564	-1180.114501953125	91.87028503417969	935.7101440429689	-1216.869384765625	52.08058547973633	889.4505615234376	-1213.393310546875	15.5990629196167	888.6167602539064	-1227.033935546875	15.72316741943359	884.2688598632814	-1176.849975585938	-31.09860801696777	846.6738891601564	-1205.826293945312	-115.6561889648438	750.5436401367189	-1229.450561523438	-111.6027984619141	746.6317138671876	-1178.41650390625	-138.8635559082031	692.8872070312501	-1205.969604492188	115.8736953735352	499.6883850097657	-1422.862915039062	138.8355102539062	428.3583374023439	-1398.419555664062	166.932861328125	466.543426513672	-1416.59130859375	236.8501281738281	291.0791320800782	-1435.322265625	171.2989349365234	247.0802307128907	-1423.3505859375	219.2961273193359	232.5718078613282	-1425.1806640625	78.03981018066406	69.53803253173837	-1319.324951171875	294.8965759277344	46.81921005249031	-1330.532836914062	242.8862915039062	30.09360885620126	-1430.741821289062	113.5954360961914	494.5704345703126	-1001.692749023438	189.2908630371094	514.7639770507814	-983.74755859375	171.9271697998047	472.4562072753907	-1004.716430664062	235.6835174560547	308.3548583984376	-993.850341796875	243.1466979980469	230.3887786865235	-1002.802368164062	201.9841613769531	257.3928833007813	-1006.814025878906	77.55583953857422	63.75182723999031	-1115.752319335938	289.6541137695312	46.99312973022468	-1104.569091796875	237.2242889404297	40.01971435546881	-1004.333984375	388.93505859375	875.3959350585939	-1208.519165039062	296.8641662597656	758.3980102539064	-1209.700927734375	373.5924987792969	951.0823974609376	-1373.425048828125	369.3876342773438	812.0129394531251	-1459.315063476562	365.1778259277344	752.0604858398439	-1486.104736328125	382.435302734375	751.3650512695314	-1438.52978515625	365.78857421875	547.6221313476564	-1500.505859375	318.3889465332031	493.9077148437501	-1534.32958984375	359.9670715332031	486.4100952148439	-1507.481811523438	353.2005310058594	378.7445373535157	-1516.100219726562	338.8489685058594	375.8795166015626	-1438.844604492188	379.1109008789062	946.5546875000001	-1048.410888671875	360.6616516113281	813.1757812500001	-961.6862182617188	373.2355041503906	749.7489624023439	-966.7800903320312	346.9855346679688	759.9192504882812	-923.216796875	337.8533935546875	538.4905395507812	-911.7218627929688	384.4812927246094	474.3440551757813	-918.6204223632812	336.1238708496094	475.7370910644532	-907.72900390625	353.2394714355469	384.3841247558594	-910.8207397460938	342.8572998046875	366.0421447753907	-978.0465698242188	
1355	6.77	1214.24365234375	39.24489212036147	-2269.2265625	1226.896118164062	29.91171836853029	-248.6514434814453	605.5573120117188	1025.787353515625	-1202.449462890625	585.7071533203125	1077.328002929688	-1139.008056640625	586.1973266601562	1070.625610351562	-1275.43408203125	331.5198669433594	1060.580322265625	-1206.353393554688	172.81201171875	992.0584716796876	-1208.179809570312	142.9460906982422	974.8192749023439	-1229.477172851562	134.8514556884766	969.9065551757814	-1180.07275390625	92.17258453369141	933.8048706054689	-1216.834594726562	52.26831436157227	887.5822143554689	-1213.359741210938	15.71683120727539	886.8821411132814	-1226.93505859375	15.86986637115479	882.5186157226564	-1176.74951171875	-30.93442916870117	844.9306030273439	-1205.689819335938	-115.7469787597656	748.4768066406251	-1229.36962890625	-111.6644439697266	744.5547485351564	-1178.336303710938	-138.8573303222656	690.7778930664064	-1205.895629882812	116.2792587280273	498.4323120117189	-1423.017944335938	139.5158386230469	427.1698608398439	-1398.668701171875	167.4703826904297	465.464080810547	-1416.817993164062	237.3746948242188	290.7608642578126	-1435.535522460938	171.7325744628906	246.9119110107423	-1423.513427734375	219.6867370605469	232.3149719238282	-1425.330932617188	78.09474945068359	69.5811080932618	-1319.311889648438	294.9113464355469	46.80019760131844	-1330.530395507812	242.8851013183594	30.07066726684579	-1430.760375976562	114.1977310180664	493.2304077148438	-1001.607727050781	189.8156127929688	513.7093505859376	-983.651611328125	172.6138763427734	471.3348388671876	-1004.617126464844	236.3374176025391	308.0606689453126	-993.7986450195312	243.5673065185547	230.0816345214844	-1002.804626464844	202.5055084228516	257.1975097656251	-1006.785095214844	77.62461853027344	63.82413864135749	-1115.83056640625	289.6376647949219	46.94500732421882	-1104.613891601562	237.2273712158203	40.02148437500006	-1004.325866699219	389.2073364257812	872.7908935546876	-1208.557739257812	296.7967529296875	756.0343627929689	-1209.736450195312	373.965576171875	948.4788818359376	-1373.420166015625	369.7259521484375	809.5215454101564	-1459.262939453125	365.5681762695312	749.5334472656251	-1486.043579101562	382.7443237304688	748.8628540039064	-1438.45556640625	366.1986694335938	545.1104736328126	-1500.406616210938	318.8521118164062	491.4062805175782	-1534.323852539062	360.3703002929688	483.9038696289064	-1507.383422851562	353.6193542480469	376.2356872558595	-1516.023681640625	339.0933227539062	373.3804016113282	-1438.813598632812	379.5935363769531	943.9721069335939	-1048.482177734375	361.1477355957031	810.6483764648439	-961.7940673828125	373.6491394042969	747.1992797851564	-966.92431640625	347.4697570800781	757.4012451171875	-923.3109130859375	338.2066955566406	535.97021484375	-911.85107421875	384.7818298339844	471.7991027832032	-918.832275390625	336.4424743652344	473.2177734375001	-907.8643798828125	353.4944152832031	381.8602600097657	-910.9945678710938	343.5316162109375	363.8230285644532	-979.2056884765625	
1356	6.775	1214.243774414062	39.24469757080092	-2269.226806640625	1226.906494140625	29.93587875366212	-248.5973968505859	606.0744018554688	1022.690795898438	-1202.556884765625	586.3663940429688	1074.270629882812	-1139.129272460938	586.791259765625	1067.54541015625	-1275.552124023438	332.1365661621094	1058.110717773438	-1206.36572265625	173.2547149658203	989.9809570312501	-1208.135009765625	143.3189849853516	972.8244628906251	-1229.427734375	135.2294921875	967.9137573242189	-1180.028198242188	92.47128295898438	931.9133300781251	-1216.797607421875	52.45307159423828	885.7234497070314	-1213.324951171875	15.82845115661621	885.1568603515626	-1226.838500976562	16.01190948486328	880.7802124023439	-1176.6494140625	-30.77133560180664	843.2001953125001	-1205.550048828125	-115.8413314819336	746.4102172851564	-1229.289184570312	-111.7291793823242	742.4776000976564	-1178.255249023438	-138.8501739501953	688.6663818359376	-1205.8212890625	116.691520690918	497.1741333007814	-1423.1708984375	140.2035827636719	425.9817504882814	-1398.913818359375	168.0137481689453	464.3849182128907	-1417.043090820312	237.9036865234375	290.4344787597657	-1435.746826171875	172.1673889160156	246.7416992187501	-1423.676513671875	220.07666015625	232.057357788086	-1425.477294921875	78.14888000488281	69.62539672851571	-1319.297485351562	294.9267272949219	46.78145599365242	-1330.526611328125	242.8810577392578	30.05239105224618	-1430.779541015625	114.8086013793945	491.8834838867188	-1001.533203125	190.3475341796875	512.6477661132814	-983.5670166015625	173.3087921142578	470.2079467773438	-1004.530151367188	236.9928588867188	307.7636108398438	-993.7457275390625	243.9949188232422	229.7721405029297	-1002.816101074219	203.0293579101562	256.9983215332032	-1006.760070800781	77.69336700439453	63.89459228515632	-1115.908813476562	289.6227416992188	46.89828491210945	-1104.656005859375	237.2310791015625	40.0241432189942	-1004.319702148438	389.4760131835938	870.2053833007814	-1208.58935546875	296.7281494140625	753.6897583007814	-1209.772216796875	374.3323364257812	945.8938598632814	-1373.409912109375	370.0535278320312	807.0468139648439	-1459.208862304688	365.9471740722656	747.0330810546876	-1485.985961914062	383.0455627441406	746.3770751953126	-1438.381713867188	366.6052551269531	542.6176147460939	-1500.309692382812	319.3098449707031	488.924774169922	-1534.318115234375	360.7670593261719	481.4154357910157	-1507.286499023438	354.0326232910156	373.7473144531251	-1515.953369140625	339.3347778320312	370.8983459472657	-1438.791137695312	380.0703125	941.4086303710939	-1048.545532226562	361.6325378417969	808.1387329101564	-961.9027099609375	374.06396484375	744.6635131835939	-967.0712890625	347.9588317871094	754.89697265625	-923.4097290039062	338.5637817382812	533.4661254882812	-911.9847412109375	385.0845947265625	469.2680053710938	-919.0504150390625	336.7654113769531	470.7139892578126	-908.0052490234375	353.7563171386719	379.3529052734376	-911.1751708984375	344.2167053222656	361.6499328613282	-980.419677734375	
1357	6.78	1214.244018554688	39.24448776245131	-2269.22705078125	1226.91748046875	29.96210098266603	-248.5381164550781	606.5831909179688	1019.617370605469	-1202.665283203125	587.0181884765625	1071.238525390625	-1139.249877929688	587.3724365234375	1064.487426757812	-1275.670043945312	332.7455139160156	1055.66064453125	-1206.37255859375	173.6907501220703	987.9214477539064	-1208.08642578125	143.6874389648438	970.8458862304689	-1229.376953125	135.5994873046875	965.9367675781251	-1179.981689453125	92.76647186279297	930.0364379882814	-1216.759033203125	52.6346435546875	883.8759765625001	-1213.289184570312	15.93420314788818	883.4418334960939	-1226.745483398438	16.14974784851074	879.0548095703126	-1176.550415039062	-30.61016845703125	841.4844360351564	-1205.408325195312	-115.9394607543945	744.3465576171876	-1229.20947265625	-111.7974700927734	740.4034423828126	-1178.173583984375	-138.8427734375	686.5556030273439	-1205.745971679688	117.1083145141602	495.9136962890626	-1423.320678710938	140.8974609375	424.7933654785157	-1399.152954101562	168.5606842041016	463.3062133789064	-1417.265380859375	238.4346618652344	290.1010742187501	-1435.956420898438	172.6015319824219	246.5702362060548	-1423.839233398438	220.4642181396484	231.7994995117188	-1425.619995117188	78.20152282714844	69.67019653320321	-1319.281127929688	294.942626953125	46.76301574707039	-1330.521362304688	242.8739776611328	30.03892326354989	-1430.799438476562	115.4259338378906	490.5317382812501	-1001.469421386719	190.8846435546875	511.5809936523438	-983.4942626953125	174.0095520019531	469.0771789550782	-1004.455627441406	237.6476440429688	307.4642028808594	-993.6928100585938	244.4289093017578	229.4606475830079	-1002.8349609375	203.5543975830078	256.7955627441407	-1006.739379882812	77.76150512695312	63.96273803710945	-1115.98681640625	289.6107482910156	46.85284423828132	-1104.69482421875	237.2354278564453	40.02756881713874	-1004.3154296875	389.7408447265625	867.6397094726564	-1208.613891601562	296.6573486328125	751.3651123046876	-1209.807250976562	374.6936645507812	943.3284301757814	-1373.394287109375	370.3710632324219	804.5892944335939	-1459.15283203125	366.3141784667969	744.5588378906251	-1485.9306640625	383.3390197753906	743.9089355468751	-1438.307861328125	367.0076904296875	540.1445312500001	-1500.214599609375	319.7615966796875	486.4648437500001	-1534.311767578125	361.15673828125	478.9465942382814	-1507.191650390625	354.4389343261719	371.2808532714845	-1515.889526367188	339.5721130371094	368.4341430664064	-1438.77685546875	380.5401611328125	938.8646850585939	-1048.600830078125	362.1143493652344	805.6470336914064	-962.0123901367188	374.4786071777344	742.1423950195314	-967.2205200195312	348.451171875	752.406982421875	-923.512939453125	338.924072265625	530.978759765625	-912.1227416992188	385.3897705078125	466.7518005371094	-919.2750854492188	337.0924377441406	468.2259826660157	-908.1515502929688	354.0250854492188	376.8626098632813	-911.3624877929688	344.8872985839844	359.5058898925782	-981.6400756835938	
